<svg width="90" height="90" viewBox="0 0 90 90" fill="none" xmlns="http://www.w3.org/2000/svg">
<g clip-path="url(#clip0_1_70)">
<path d="M45 89.9757C69.715 89.9757 89.7504 69.8471 89.7504 45.0172C89.7504 20.1872 69.715 0.0585938 45 0.0585938C20.285 0.0585938 0.249573 20.1872 0.249573 45.0172C0.249573 69.8471 20.285 89.9757 45 89.9757Z" fill="#96C9E9"/>
<path d="M36.0977 62.7072V27.3267L60.9996 45.0166L36.0977 62.7072Z" fill="#134A45"/>
</g>
<defs>
<clipPath id="clip0_1_70">
<path d="M0 45C0 20.1472 20.1472 0 45 0C69.8528 0 90 20.1472 90 45C90 69.8528 69.8528 90 45 90C20.1472 90 0 69.8528 0 45Z" fill="white"/>
</clipPath>
</defs>
</svg>
